#!OML:ASF I:\Random Stuff\random\construction\7_22_03\Session 2\subj1.ASF
:FULLY-SPECIFIED
:DEGREES
1391
root 14.9818 17.619 -2.2097 15.9383 -138.785 -2.06247
lowerback 9.44667 -2.53192 2.90004
upperback 2.80686 -3.22641 2.88658
thorax -2.36004 -1.705 1.72912
lowerneck -19.1091 -2.56916 -6.4807
upperneck 44.6845 -6.11875 -1.35442
head 21.5169 -4.82627 -1.43066
rclavicle -1.59028e-014 3.65764e-014
rhumerus -25.7127 35.7506 -76.7403
rradius 87.6934
rwrist -2.32069
rhand -2.25445 32.5031
rfingers 7.12502
rthumb 23.4293 3.90951
lclavicle -1.59028e-014 3.65764e-014
lhumerus -10.8304 -1.04903 88.9146
lradius 113.028
lwrist 81.3285
lhand -14.835 60.7429
lfingers 7.12502
lthumb 11.3239 269.583
rfemur -32.5586 17.7859 11.4728
rtibia 26.1871
rfoot -3.98443 -18.4493
rtoes -21.5108
lfemur -22.752 -2.68982 -17.9386
ltibia 28.8492
lfoot -17.9608 4.80044
ltoes -28.2648
1392
root 14.9147 17.6111 -2.13609 15.8188 -139.365 -1.93215
lowerback 9.24718 -2.48372 2.77403
upperback 2.61233 -3.16338 2.935
thorax -2.44345 -1.66959 1.83829
lowerneck -19.0163 -2.53747 -6.55362
upperneck 44.5532 -6.14576 -1.09465
head 21.4109 -4.82009 -1.2785
rclavicle -6.08281e-014 -5.56597e-015
rhumerus -24.0625 36.2101 -75.8008
rradius 87.722
rwrist -3.55014
rhand -0.407382 32.1623
rfingers 7.12502
rthumb 25.2001 3.80611
lclavicle -6.08281e-014 -5.56597e-015
lhumerus -10.3229 -1.17436 88.5931
lradius 113.969
lwrist 82.7745
lhand -17.1912 53.4556
lfingers 7.12502
lthumb 9.05089 443.241
rfemur -32.7568 19.8382 10.4486
rtibia 26.0858
rfoot -3.72959 -20.0705
rtoes -20.8842
lfemur -22.6336 -2.54982 -18.2158
ltibia 28.8415
lfoot -18.293 4.82679
ltoes -27.0566
1393
root 14.8486 17.6017 -2.06603 15.6069 -139.841 -1.68967
lowerback 9.01885 -2.43686 2.76029
upperback 2.42244 -3.09465 3.00095
thorax -2.51091 -1.63218 1.90093
lowerneck -19.172 -2.48204 -6.48447
upperneck 44.6598 -6.15786 -1.0034
head 21.5407 -4.81132 -1.26537
rclavicle -5.68524e-014 3.18055e-014
rhumerus -22.4391 36.6577 -74.9018
rradius 87.6986
rwrist -4.68139
rhand 1.31294 31.8254
rfingers 7.12502
rthumb 26.8473 3.71143
lclavicle -5.68524e-014 3.18055e-014
lhumerus -9.82688 -1.31234 88.2931
lradius 114.674
lwrist 83.0708
lhand -18.3664 63.8943
lfingers 7.12502
lthumb 7.91669 266.274
rfemur -32.9498 21.6841 9.59731
rtibia 25.9962
rfoot -3.45628 -21.5692
rtoes -20.6756
lfemur -22.5533 -2.34199 -18.4248
ltibia 28.9005
lfoot -18.5416 4.96705
ltoes -27.7078
1394
root 14.7823 17.5924 -1.99746 15.3494 -140.215 -1.52038
lowerback 8.7966 -2.40604 2.79313
upperback 2.29337 -3.04831 3.00072
thorax -2.52427 -1.60619 1.86996
lowerneck -19.164 -2.4604 -6.39042
upperneck 44.5819 -6.22225 -0.837995
head 21.4868 -4.79973 -1.20686
rclavicle 4.8901e-014 2.94201e-014
rhumerus -20.7993 37.0495 -74.0845
rradius 87.5588
rwrist -5.52409
rhand 2.79017 31.5551
rfingers 7.12502
rthumb 28.26 3.66648
lclavicle 4.8901e-014 2.94201e-014
lhumerus -9.19587 -1.7387 87.9466
lradius 115.493
lwrist 84.3466
lhand -21.7928 54.5753
lfingers 7.12502
lthumb 4.60882 444.505
rfemur -33.0341 23.4447 8.74776
rtibia 25.9066
rfoot -3.23998 -23.0772
rtoes -20.5955
lfemur -22.4118 -2.16045 -18.7272
ltibia 29.0163
lfoot -18.6775 5.27559
ltoes -29.1289
1395
root 14.7287 17.5829 -1.9352 14.9151 -140.722 -1.37576
lowerback 8.79668 -2.28747 2.57953
upperback 2.22465 -2.90327 3.01021
thorax -2.58654 -1.53213 1.98538
lowerneck -19.3483 -2.42699 -6.13043
upperneck 44.6625 -6.27113 -0.863567
head 21.5893 -4.78066 -1.29336
rclavicle 5.28767e-014 -3.18055e-014
rhumerus -19.1714 37.4621 -73.2514
rradius 87.2584
rwrist -6.00404
rhand 3.84299 31.5307
rfingers 7.12502
rthumb 29.2658 3.81294
lclavicle 5.28767e-014 -3.18055e-014
lhumerus -8.22507 -1.02267 87.5034
lradius 115.906
lwrist 83.1793
lhand -17.8449 52.3414
lfingers 7.12502
lthumb 8.41998 442.154
rfemur -32.9449 25.1676 8.04482
rtibia 25.82
rfoot -3.05312 -24.3675
rtoes -20.745
lfemur -22.0501 -1.75421 -19.0617
ltibia 29.1547
lfoot -18.8891 5.35206
ltoes -28.966
